<svg width="512" height="218" viewBox="0 0 512 218" fill="none" xmlns="http://www.w3.org/2000/svg">
<path d="M501.136 13.5799L501.718 19.3998L505.404 52.7676L499.972 53.3496C497.062 26.7718 492.6 22.3098 478.826 22.3098H451.085C445.071 22.3098 441.967 25.6078 441.967 31.4278V84.7774H466.022C477.468 84.7774 480.766 81.8674 480.766 61.8855H485.228V114.459H480.766C480.766 94.6713 477.468 91.7613 466.022 91.7613H441.967V148.991C441.967 158.109 443.519 160.049 451.085 160.049H478.632C493.182 160.049 498.808 154.423 506.568 124.741L512 126.293L502.494 163.153L500.942 168.779H399.481V164.123C417.523 164.123 420.045 160.631 420.045 148.797V33.5617C420.045 21.7278 417.523 18.2359 399.481 18.2359V13.5799H501.136Z" fill="white"/>
<path d="M326.782 217.278V212.622C351.808 188.761 363.835 148.021 363.835 108.639C363.835 66.5415 353.554 26.5778 330.08 4.65598V0C362.089 19.2059 386.145 57.6176 386.145 108.639C386.145 158.885 359.955 195.551 326.782 217.278Z" fill="white"/>
<path d="M199.872 92.5374C199.872 45.7837 225.092 10.476 262.728 10.476C275.144 10.476 285.619 13.9679 294.543 22.5039C297.453 25.2199 299.781 24.4439 300.169 20.7579L301.139 12.2219H305.601L308.511 67.1235H304.049C298.617 36.4718 286.783 19.0119 266.22 19.0119C239.06 19.0119 223.54 49.4697 223.54 90.0154C223.54 130.755 239.448 160.437 266.22 160.437C289.887 160.437 304.049 136.963 308.123 105.729H313.749C310.063 146.275 292.797 171.883 259.818 171.883C221.406 171.883 199.872 136.769 199.872 92.5374Z" fill="white"/>
<path d="M190.154 212.622V217.278C156.98 195.551 130.79 158.885 130.79 108.639C130.79 57.6176 154.846 19.2059 186.856 0V4.65598C163.382 26.5778 153.1 66.5415 153.1 108.639C153.1 148.021 165.128 188.761 190.154 212.622Z" fill="white"/>
<path d="M0 92.5374C0 45.7837 25.2198 10.476 62.8555 10.476C75.2715 10.476 85.7474 13.9679 94.6713 22.5039C97.5813 25.2199 99.9093 24.4439 100.297 20.7579L101.267 12.2219H105.729L108.639 67.1235H104.177C98.7453 36.4718 86.9114 19.0119 66.3475 19.0119C39.1877 19.0119 23.6678 49.4697 23.6678 90.0154C23.6678 130.755 39.5757 160.437 66.3475 160.437C90.0153 160.437 104.177 136.963 108.251 105.729H113.877C110.191 146.275 92.9253 171.883 59.9456 171.883C21.5338 171.883 0 136.769 0 92.5374Z" fill="white"/>
</svg>
